<?xml version="1.0" standalone="no"?>
<!DOCTYPE svg PUBLIC "-//W3C//DTD SVG 20010904//EN"
 "http://www.w3.org/TR/2001/REC-SVG-20010904/DTD/svg10.dtd">
<svg version="1.0" xmlns="http://www.w3.org/2000/svg"
 width="1200.000000pt" height="1200.000000pt" viewBox="0 0 1200.000000 1200.000000"
 preserveAspectRatio="xMidYMid meet">
<metadata>
Created by potrace 1.16, written by Peter Selinger 2001-2019
</metadata>
<g transform="translate(0.000000,1200.000000) scale(0.100000,-0.100000)"
fill="#000000" stroke="none">
<path d="M4350 6005 l0 -495 3050 0 3050 0 0 495 0 495 -3050 0 -3050 0 0
-495z m1609 270 c137 -69 204 -230 156 -374 -22 -66 -91 -143 -160 -177 -71
-34 -178 -37 -247 -6 -145 64 -222 234 -174 380 20 61 92 144 147 173 90 45
194 47 278 4z m1606 24 c48 -12 145 -50 145 -55 0 -5 -61 -127 -66 -133 -2 -2
-30 8 -63 23 -65 29 -122 34 -141 11 -20 -24 3 -41 97 -71 148 -47 204 -113
189 -219 -16 -103 -97 -160 -231 -160 -82 0 -199 28 -240 59 -19 14 -19 15 14
84 l34 70 62 -29 c79 -37 155 -48 174 -25 21 25 0 41 -92 71 -137 44 -187 91
-187 177 0 146 144 240 305 197z m1732 -19 c61 -27 117 -81 151 -145 23 -43
27 -62 27 -135 0 -95 -17 -139 -81 -210 -81 -89 -228 -119 -342 -70 -68 29
-144 112 -167 181 -23 68 -17 178 13 236 75 145 251 208 399 143z m-4453 -118
c50 -111 62 -131 72 -117 6 8 36 69 65 135 l54 120 93 0 92 0 0 -300 0 -300
-85 0 -84 0 -3 150 -3 150 -46 -102 -45 -103 -45 -3 -45 -3 -43 98 c-24 54
-47 102 -52 108 -5 5 -9 -54 -9 -143 l0 -152 -80 0 -80 0 0 300 0 301 92 -3
91 -3 61 -133z m1973 111 c97 -52 153 -149 153 -267 0 -127 -52 -221 -154
-274 -48 -25 -60 -27 -218 -30 l-168 -4 0 302 0 302 173 -4 c155 -3 176 -5
214 -25z m1383 -83 l0 -110 100 0 100 0 0 110 0 110 80 0 80 0 0 -300 0 -300
-80 0 -79 0 -3 118 -3 117 -97 3 -98 3 0 -121 0 -120 -85 0 -85 0 0 300 0 300
85 0 85 0 0 -110z m1935 87 c21 -12 53 -42 70 -65 27 -40 30 -51 30 -120 0
-68 -3 -82 -28 -118 -42 -62 -89 -84 -181 -84 l-76 0 0 -95 0 -95 -85 0 -85 0
0 300 0 300 158 0 c144 0 160 -2 197 -23z"/>
<path d="M5762 6143 c-87 -43 -97 -208 -17 -271 40 -32 87 -38 131 -16 55 27
77 64 82 132 9 129 -90 208 -196 155z"/>
<path d="M9111 6142 c-47 -26 -71 -74 -71 -143 0 -68 27 -115 83 -143 91 -44
187 29 187 144 0 120 -105 194 -199 142z"/>
<path d="M6602 6003 l3 -158 54 1 c89 3 141 61 141 159 0 96 -58 155 -153 155
l-48 0 3 -157z"/>
<path d="M1750 6235 l0 -75 90 0 90 0 0 -230 0 -230 90 0 90 0 0 230 0 230 85
0 85 0 0 75 0 75 -265 0 -265 0 0 -75z"/>
<path d="M2560 6005 l0 -305 90 0 90 0 0 115 0 115 95 0 95 0 0 -115 0 -115
90 0 90 0 0 305 0 305 -90 0 -90 0 0 -115 0 -115 -95 0 -95 0 0 115 0 115 -90
0 -90 0 0 -305z"/>
<path d="M3420 6005 l0 -305 225 0 225 0 0 75 0 75 -130 0 -130 0 0 45 0 45
105 0 105 0 0 70 0 70 -105 0 -105 0 0 40 0 40 125 0 125 0 0 75 0 75 -220 0
-220 0 0 -305z"/>
</g>
</svg>
